<svg width="291" height="95" viewBox="0 0 291 95" fill="none" xmlns="http://www.w3.org/2000/svg">
<path d="M198.632 60.9759C199.4 61.7012 200.296 62.2559 201.32 62.6399C202.344 63.0239 203.432 63.2159 204.584 63.2159C205.736 63.2159 206.824 63.0239 207.848 62.6399C208.872 62.2559 209.768 61.7012 210.536 60.9759L216.104 66.6719C214.568 68.0372 212.797 69.0825 210.792 69.8079C208.829 70.5332 206.76 70.8959 204.584 70.8959C202.408 70.8959 200.317 70.5332 198.312 69.8079C196.349 69.0825 194.6 68.0372 193.064 66.6719C191.528 65.2639 190.312 63.5572 189.416 61.5519C188.52 59.5039 188.072 57.1572 188.072 54.5119V53.7439C188.072 51.1412 188.52 48.8372 189.416 46.8319C190.312 44.7839 191.528 43.0559 193.064 41.6479C194.6 40.2399 196.349 39.1732 198.312 38.4479C200.317 37.7225 202.408 37.3599 204.584 37.3599C206.76 37.3599 208.829 37.7225 210.792 38.4479C212.797 39.1732 214.568 40.2399 216.104 41.6479L210.536 47.2799C209.768 46.5545 208.872 45.9999 207.848 45.6159C206.824 45.2319 205.736 45.0399 204.584 45.0399C203.432 45.0399 202.344 45.2319 201.32 45.6159C200.296 45.9999 199.4 46.5545 198.632 47.2799C197.864 48.0052 197.245 48.9012 196.776 49.9679C196.349 50.9919 196.136 52.1652 196.136 53.4879V54.7679C196.136 56.0905 196.349 57.2852 196.776 58.3519C197.245 59.3759 197.864 60.2505 198.632 60.9759Z" fill="white"/>
<path d="M220.134 60.57C220.134 60.97 220.054 61.35 219.894 61.71C219.754 62.05 219.554 62.35 219.294 62.61C219.034 62.85 218.724 63.04 218.364 63.18C218.024 63.34 217.664 63.42 217.284 63.42C216.884 63.42 216.514 63.34 216.174 63.18C215.834 63.04 215.534 62.85 215.274 62.61C215.014 62.35 214.804 62.05 214.644 61.71C214.504 61.35 214.434 60.97 214.434 60.57C214.434 60.17 214.504 59.8 214.644 59.46C214.804 59.1 215.014 58.8 215.274 58.56C215.534 58.3 215.834 58.1 216.174 57.96C216.514 57.8 216.884 57.72 217.284 57.72C217.664 57.72 218.024 57.8 218.364 57.96C218.724 58.1 219.034 58.3 219.294 58.56C219.554 58.8 219.754 59.1 219.894 59.46C220.054 59.8 220.134 60.17 220.134 60.57ZM220.134 50.55C220.134 50.95 220.054 51.33 219.894 51.69C219.754 52.03 219.554 52.33 219.294 52.59C219.034 52.83 218.724 53.03 218.364 53.19C218.024 53.33 217.664 53.4 217.284 53.4C216.884 53.4 216.514 53.33 216.174 53.19C215.834 53.03 215.534 52.83 215.274 52.59C215.014 52.33 214.804 52.03 214.644 51.69C214.504 51.33 214.434 50.95 214.434 50.55C214.434 50.15 214.504 49.78 214.644 49.44C214.804 49.08 215.014 48.78 215.274 48.54C215.534 48.28 215.834 48.08 216.174 47.94C216.514 47.78 216.884 47.7 217.284 47.7C217.664 47.7 218.024 47.78 218.364 47.94C218.724 48.08 219.034 48.28 219.294 48.54C219.554 48.78 219.754 49.08 219.894 49.44C220.054 49.78 220.134 50.15 220.134 50.55Z" fill="white"/>
<path d="M158.8 64.32H169.936V34.88H159.184V27.2H178V64.32H188.368V72H158.8V64.32Z" fill="white"/>
<path d="M220.736 40.256H229.76V33.728C229.76 31.8933 230.379 30.3573 231.616 29.12C232.853 27.84 234.389 27.2 236.224 27.2H249.152V34.88H239.552C238.4 34.88 237.824 35.52 237.824 36.8V40.256H250.304V47.936H237.824V72H229.76V47.936H220.736V40.256ZM255.444 40.256H264.852V27.2H272.916V40.256H284.372V47.936H272.916V62.4C272.916 63.68 273.492 64.32 274.644 64.32H283.22V72H269.78C268.329 72 267.134 71.5307 266.196 70.592C265.3 69.6533 264.852 68.4587 264.852 67.008V47.936H255.444V40.256Z" fill="white"/>
<path d="M36.096 56.512C36.096 59.1573 35.648 61.504 34.752 63.552C33.856 65.5573 32.64 67.264 31.104 68.672C29.568 70.0373 27.7973 71.0827 25.792 71.808C23.8293 72.5333 21.76 72.896 19.584 72.896C17.408 72.896 15.3173 72.5333 13.312 71.808C11.3493 71.0827 9.6 70.0373 8.064 68.672C6.528 67.264 5.312 65.5573 4.416 63.552C3.52 61.504 3.072 59.1573 3.072 56.512V55.744C3.072 53.1413 3.52 50.8373 4.416 48.832C5.312 46.784 6.528 45.056 8.064 43.648C9.6 42.24 11.3493 41.1733 13.312 40.448C15.3173 39.7227 17.408 39.36 19.584 39.36C21.76 39.36 23.8293 39.7227 25.792 40.448C27.7973 41.1733 29.568 42.24 31.104 43.648C32.64 45.056 33.856 46.784 34.752 48.832C35.648 50.8373 36.096 53.1413 36.096 55.744V56.512ZM19.584 65.216C20.736 65.216 21.824 65.024 22.848 64.64C23.872 64.256 24.768 63.7013 25.536 62.976C26.304 62.2507 26.9013 61.376 27.328 60.352C27.7973 59.2853 28.032 58.0907 28.032 56.768V55.488C28.032 54.1653 27.7973 52.992 27.328 51.968C26.9013 50.9013 26.304 50.0053 25.536 49.28C24.768 48.5547 23.872 48 22.848 47.616C21.824 47.232 20.736 47.04 19.584 47.04C18.432 47.04 17.344 47.232 16.32 47.616C15.296 48 14.4 48.5547 13.632 49.28C12.864 50.0053 12.2453 50.9013 11.776 51.968C11.3493 52.992 11.136 54.1653 11.136 55.488V56.768C11.136 58.0907 11.3493 59.2853 11.776 60.352C12.2453 61.376 12.864 62.2507 13.632 62.976C14.4 63.7013 15.296 64.256 16.32 64.64C17.344 65.024 18.432 65.216 19.584 65.216ZM46.7395 84.8H38.6755V40.256H46.7395V44.864H47.8915C48.7448 43.1147 49.9822 41.7707 51.6035 40.832C53.2248 39.8507 55.2942 39.36 57.8115 39.36C59.6888 39.36 61.4595 39.7227 63.1235 40.448C64.8302 41.1733 66.3022 42.24 67.5395 43.648C68.8195 45.0133 69.8222 46.6987 70.5475 48.704C71.3155 50.7093 71.6995 52.992 71.6995 55.552V56.704C71.6995 59.3067 71.3368 61.6107 70.6115 63.616C69.8862 65.6213 68.9048 67.328 67.6675 68.736C66.4302 70.1013 64.9582 71.1467 63.2515 71.872C61.5875 72.5547 59.7742 72.896 57.8115 72.896C56.3608 72.896 55.1022 72.7467 54.0355 72.448C52.9688 72.1493 52.0302 71.744 51.2195 71.232C50.4515 70.72 49.7902 70.144 49.2355 69.504C48.7235 68.8213 48.2755 68.1173 47.8915 67.392H46.7395V84.8ZM55.1875 65.216C57.7048 65.216 59.7315 64.448 61.2675 62.912C62.8462 61.3333 63.6355 59.2 63.6355 56.512V55.744C63.6355 53.056 62.8462 50.944 61.2675 49.408C59.7315 47.8293 57.7048 47.04 55.1875 47.04C52.6702 47.04 50.6222 47.8507 49.0435 49.472C47.5075 51.0507 46.7395 53.1413 46.7395 55.744V56.512C46.7395 59.1147 47.5075 61.2267 49.0435 62.848C50.6222 64.4267 52.6702 65.216 55.1875 65.216ZM82.791 58.752C82.8337 59.6907 83.047 60.5653 83.431 61.376C83.8577 62.144 84.4123 62.8267 85.095 63.424C85.8203 63.9787 86.631 64.4267 87.527 64.768C88.4657 65.0667 89.447 65.216 90.471 65.216C92.4763 65.216 94.0123 64.8747 95.079 64.192C96.1457 63.4667 96.9137 62.6133 97.383 61.632L104.295 65.472C103.911 66.2827 103.378 67.136 102.695 68.032C102.012 68.8853 101.116 69.6747 100.007 70.4C98.9403 71.1253 97.6177 71.7227 96.039 72.192C94.503 72.6613 92.6897 72.896 90.599 72.896C88.2097 72.896 86.0337 72.512 84.071 71.744C82.1083 70.976 80.4017 69.8667 78.951 68.416C77.543 66.9653 76.4337 65.1947 75.623 63.104C74.855 61.0133 74.471 58.6453 74.471 56V55.616C74.471 53.184 74.8763 50.9653 75.687 48.96C76.5403 46.9547 77.6923 45.248 79.143 43.84C80.5937 42.432 82.279 41.344 84.199 40.576C86.1617 39.7653 88.2523 39.36 90.471 39.36C93.2017 39.36 95.5483 39.8507 97.511 40.832C99.4737 41.7707 101.095 42.9867 102.375 44.48C103.655 45.9307 104.594 47.552 105.191 49.344C105.788 51.0933 106.087 52.8 106.087 54.464V58.752H82.791ZM90.407 46.656C88.359 46.656 86.695 47.1893 85.415 48.256C84.135 49.28 83.303 50.4747 82.919 51.84H97.895C97.639 50.3467 96.8283 49.1093 95.463 48.128C94.1403 47.1467 92.455 46.656 90.407 46.656ZM119.099 72H111.035V40.256H119.099V44.992H120.251C120.976 43.2 122.149 41.8133 123.771 40.832C125.392 39.8507 127.291 39.36 129.467 39.36C131.003 39.36 132.432 39.616 133.755 40.128C135.12 40.5973 136.315 41.344 137.339 42.368C138.363 43.392 139.152 44.6933 139.707 46.272C140.304 47.8507 140.603 49.728 140.603 51.904V72H132.539V53.952C132.539 51.6907 131.984 49.92 130.875 48.64C129.808 47.3173 128.251 46.656 126.203 46.656C123.813 46.656 122.021 47.4667 120.827 49.088C119.675 50.6667 119.099 52.8 119.099 55.488V72Z" fill="white"/>
</svg>
